<svg xmlns="http://www.w3.org/2000/svg" width="430" height="430" style="width:100%;height:100%;transform:translate3d(0,0,0);content-visibility:visible" viewBox="0 0 430 430"><defs><clipPath id="a"><path d="M0 0h430v430H0z"/></clipPath><clipPath id="f"><path d="M0 0h430v430H0z"/></clipPath><clipPath id="i"><path d="M0 0h430v430H0z"/></clipPath><clipPath id="h"><path d="M0 0h430v430H0z"/></clipPath><clipPath id="g"><path d="M0 0h430v430H0z"/></clipPath><clipPath id="b"><path d="M0 0h430v430H0z"/></clipPath><clipPath id="e"><path d="M0 0h430v430H0z"/></clipPath><clipPath id="d"><path d="M0 0h430v430H0z"/></clipPath><clipPath id="c"><path d="M0 0h430v430H0z"/></clipPath></defs><g clip-path="url(#a)"><g clip-path="url(#b)" style="display:none"><g clip-path="url(#c)" style="display:none"><g style="display:none"><path class="senary"/><path class="primary"/><path class="primary"/></g><path fill="none" class="quinary" style="display:none"/><g style="display:none"><path class="tertiary"/><path class="tertiary" style="mix-blend-mode:multiply"/></g><g style="display:none"><path class="quaternary"/><path class="quaternary" style="mix-blend-mode:multiply"/></g><g style="display:none"><path fill="none" class="secondary"/><path class="secondary"/></g><path class="quaternary" style="display:none"/><path class="secondary" style="display:none"/><g style="display:none"><path class="secondary"/><path fill="none" class="secondary"/></g><path class="tertiary" style="display:none"/><path class="tertiary" style="display:none"/><g style="display:none"><path class="primary"/><path class="primary" style="mix-blend-mode:multiply"/></g><g style="display:none"><path class="primary"/><path class="primary" style="mix-blend-mode:multiply"/></g><g fill="none" style="display:none"><path class="primary"/><path class="primary" style="mix-blend-mode:multiply"/></g><g fill="none" style="display:none"><path class="primary"/><path class="primary" style="mix-blend-mode:multiply"/></g><g style="display:none"><path fill="none" class="primary"/><path class="primary"/><path fill="none" class="primary"/><path class="primary"/></g><path class="primary" style="display:none"/><path class="primary" style="display:none"/><path class="primary" style="display:none"/><path class="primary" style="display:none"/><g fill="none" style="display:none"><path class="primary"/><path class="primary"/></g><g fill="none" style="display:none"><path class="primary"/><path class="primary"/></g><path fill="none" class="primary" style="display:none"/><path fill="none" class="primary" style="display:none"/><path fill="none" class="primary" style="display:none"/><path fill="none" class="quinary" style="display:none"/></g><g clip-path="url(#d)" style="display:none"><g style="display:none"><path class="senary"/><path class="primary"/><path class="primary"/></g><path fill="none" class="quinary" style="display:none"/><g style="display:none"><path class="tertiary"/><path class="tertiary" style="mix-blend-mode:multiply"/></g><g style="display:none"><path class="quaternary"/><path class="quaternary" style="mix-blend-mode:multiply"/></g><g style="display:none"><path fill="none" class="secondary"/><path class="secondary"/></g><path class="quaternary" style="display:none"/><path class="secondary" style="display:none"/><g style="display:none"><path class="secondary"/><path fill="none" class="secondary"/></g><path class="tertiary" style="display:none"/><path class="tertiary" style="display:none"/><g style="display:none"><path class="primary"/><path class="primary" style="mix-blend-mode:multiply"/></g><g style="display:none"><path class="primary"/><path class="primary" style="mix-blend-mode:multiply"/></g><g fill="none" style="display:none"><path class="primary"/><path class="primary" style="mix-blend-mode:multiply"/></g><g fill="none" style="display:none"><path class="primary"/><path class="primary" style="mix-blend-mode:multiply"/></g><g style="display:none"><path fill="none" class="primary"/><path class="primary"/><path fill="none" class="primary"/><path class="primary"/></g><path class="primary" style="display:none"/><path class="primary" style="display:none"/><path class="primary" style="display:none"/><path class="primary" style="display:none"/><g fill="none" style="display:none"><path class="primary"/><path class="primary"/></g><g fill="none" style="display:none"><path class="primary"/><path class="primary"/></g><path fill="none" class="primary" style="display:none"/><path fill="none" class="primary" style="display:none"/><path fill="none" class="primary" style="display:none"/><path fill="none" class="quinary" style="display:none"/></g><g clip-path="url(#e)" style="display:none"><g style="display:none"><path class="senary"/><path class="primary"/><path class="primary"/></g><path fill="none" class="quinary" style="display:none"/><g style="display:none"><path class="tertiary"/><path class="tertiary" style="mix-blend-mode:multiply"/></g><g style="display:none"><path class="quaternary"/><path class="quaternary" style="mix-blend-mode:multiply"/></g><g style="display:none"><path fill="none" class="secondary"/><path class="secondary"/></g><path class="quaternary" style="display:none"/><path class="secondary" style="display:none"/><g style="display:none"><path class="secondary"/><path fill="none" class="secondary"/></g><path class="tertiary" style="display:none"/><path class="tertiary" style="display:none"/><g style="display:none"><path class="primary"/><path class="primary" style="mix-blend-mode:multiply"/></g><g style="display:none"><path class="primary"/><path class="primary" style="mix-blend-mode:multiply"/></g><g fill="none" style="display:none"><path class="primary"/><path class="primary" style="mix-blend-mode:multiply"/></g><g fill="none" style="display:none"><path class="primary"/><path class="primary" style="mix-blend-mode:multiply"/></g><g style="display:none"><path fill="none" class="primary"/><path class="primary"/><path fill="none" class="primary"/><path class="primary"/></g><path class="primary" style="display:none"/><path class="primary" style="display:none"/><path class="primary" style="display:none"/><path class="primary" style="display:none"/><g fill="none" style="display:none"><path class="primary"/><path class="primary"/></g><g fill="none" style="display:none"><path class="primary"/><path class="primary"/></g><path fill="none" class="primary" style="display:none"/><path fill="none" class="primary" style="display:none"/><path fill="none" class="primary" style="display:none"/><path fill="none" class="quinary" style="display:none"/></g></g><g clip-path="url(#f)" style="display:block"><g clip-path="url(#g)" style="display:block"><g style="display:block"><path fill="#F9C9C0" d="m121.854 101.68 19.137 2.659c3.046.31 5.911-1.544 6.828-4.465 1.415-4.508 2.692-12.014 3.446-20.772 4.159-44.58-27.592-39.2-27.592-39.2s-21.55.496-22.18 21.645c-1.077 36.177 20.361 40.134 20.361 40.134z" class="senary"/><path fill="#B26836" d="M111.07 43.776c-2.614-6.183-8.669-10.368-15.804-10.368-9.511 0-17.222 7.71-17.222 17.222 0 9.51 7.711 17.222 17.222 17.222 2.268 0 4.244-.364 6.227-1.16" class="primary"/><path fill="#B26836" d="m147.553 49.186-.891.764a19.903 19.903 0 0 0-11.154-3.385c-11.101 0-20.1 8.999-20.1 20.089h-5.635a4.436 4.436 0 0 0-4.436 4.436v2.579a4.436 4.436 0 0 1-4.436 4.436c-1.019-4.786-1.55-10.442-1.348-17.16.669-22.392 23.485-22.923 23.485-22.923s16.046-2.717 24.515 11.164z" class="primary"/></g><path fill="none" stroke="#4BB3FD" stroke-linecap="round" stroke-linejoin="round" stroke-width="7" d="M8.312-23c3.667 35 31.185 88.982 95.25 103.5" class="quinary" style="display:block" transform="translate(215 215)"/><g fill="#F28BA8" style="display:block"><path d="m143.234 135.311 32.89 33.325 59.33 12.831s4.086 22.768-19.03 25.899l-52.63-11.431-26.267-22.23" class="tertiary"/><path fill-opacity=".5" d="m-71.766-79.689 32.89 33.325 59.33 12.831S24.54-10.765 1.424-7.634l-52.63-11.431-26.267-22.23" class="tertiary" style="mix-blend-mode:multiply" transform="translate(215 215)"/></g><g fill="#3A3347" style="display:block"><path d="m96.947 210.37-2.863 5.242c-4.376 8.954-5.752 22.358-5.884 33.124l-7.395 36.52L39.28 333.89l-15.363 17.897 31.805 28.51 18.224 16.334-10.286-44.649 58.442-53.917L147.2 211.8" class="quaternary"/><path fill-opacity=".5" d="m-118.053-4.63-2.863 5.242c-4.376 8.954-5.752 22.358-5.884 33.124l-7.395 36.52-41.524 48.635-15.363 17.897 31.805 28.51 18.224 16.334-10.286-44.649 58.442-53.917L-67.799-3.2" class="quaternary" style="mix-blend-mode:multiply" transform="translate(215 215)"/></g><g style="display:block"><path fill="none" stroke="#F24C00" stroke-linejoin="round" stroke-width="4" d="m40.115 332.914-.834.977-15.363 17.897 31.805 28.51 18.224 16.334-10.286-44.649.511-.472" class="secondary"/><path fill="#F24C00" d="m40.115 332.914-.834.977-15.363 17.897 31.805 28.51 18.224 16.334-10.286-44.649.511-.472" class="secondary"/></g><path fill="#3A3347" d="m-117.845-4.691-.718 13.921c-.727 14.19 3.705 33.057 12.461 44.254l35.276 45.089.522 62.866.423 24.926h67.268l-37.508-26.414 8.322-78.383L-67.052-4.7" class="quaternary" style="display:block" transform="translate(215 215)"/><path fill="#F24C00" d="m-70.291 162.222.41 24.143h67.268l-33.641-23.691" class="secondary" style="display:block" transform="translate(215 215)"/><g style="display:block"><path fill="#F24C00" d="m144.709 377.222.41 24.143h67.268l-33.641-23.691" class="secondary"/><path fill="none" stroke="#F24C00" stroke-linejoin="round" stroke-width="4" d="m144.709 377.222.41 24.143h67.268l-33.641-23.691" class="secondary"/></g><path fill="#F28BA8" d="M-67.053-2.69h-50.791l-5.861-64.227c0-17.262 13.994-31.256 31.256-31.256 16.937 14.042 24.54 18.244 29.244 26.569 3.389 5.998 4.504 13.018 3.535 19.839L-67.053-2.69z" class="tertiary" style="display:block" transform="translate(215 215)"/><path fill="#F28BA8" d="m-111.962-91.304-49.291 39.103-25.339 47.531c-3.285 23.092 20.728 26.347 20.728 26.347l28.505-53.585 39.952-31.582" class="tertiary" style="display:block" transform="translate(215 215)"/><g fill="#B26836" style="display:block"><path d="M355.343 334.377c3.356 11.011 6.3 18.702 10.188 30.214l6.847 18.19 6.16 17.924-25.552-.022-6.407-16.65-13.384-37.209" class="primary"/><path fill-opacity=".5" d="M137.337 122.127c3.356 11.011 6.3 18.702 10.188 30.214l6.847 18.19 6.16 17.924-25.552-.022-6.407-16.65-13.384-37.209" class="primary" style="mix-blend-mode:multiply" transform="translate(218.006 212.25)"/></g><g fill="#B26836" style="display:block"><path d="M267.693 350.175c-3.836 7.041-26.71 38.68-26.71 38.68l-14.119 9.182-13.418-22.571 13.834-8.663 5.377-17.654" class="primary"/><path fill-opacity=".5" d="M39.562 143.95c-.081 8.019-5.425 46.692-5.425 46.692l-8.155 14.736-22.444-13.63 8.148-14.143-3.541-18.112" class="primary" style="mix-blend-mode:multiply" transform="rotate(28 -259.935 704.558)"/></g><g fill="none" stroke="#B26836" stroke-linecap="round" stroke-linejoin="round" stroke-width="4" style="display:block"><path d="M355.343 334.377c3.356 11.011 6.3 18.702 10.188 30.214l6.847 18.19 6.16 17.924-25.552-.022-6.407-16.65-13.384-37.209" class="primary"/><path stroke-opacity=".5" d="M137.337 122.127c3.356 11.011 6.3 18.702 10.188 30.214l6.847 18.19 6.16 17.924-25.552-.022-6.407-16.65-13.384-37.209" class="primary" style="mix-blend-mode:multiply" transform="translate(218.006 212.25)"/></g><g fill="none" stroke="#B26836" stroke-linecap="round" stroke-linejoin="round" stroke-width="4" style="display:block"><path d="M267.693 350.175c-3.836 7.041-26.71 38.68-26.71 38.68l-14.119 9.182-13.418-22.571 13.834-8.663 5.377-17.654" class="primary"/><path stroke-opacity=".5" d="M39.562 143.95c-.081 8.019-5.425 46.692-5.425 46.692l-8.155 14.736-22.444-13.63 8.148-14.143-3.541-18.112" class="primary" style="mix-blend-mode:multiply" transform="rotate(28 -259.935 704.558)"/></g><g style="display:block"><path fill="none" stroke="#B26836" stroke-width="2" d="M332.374 285.912c-5.177 5.988-14.222 10.91-22.138 10.923l-72.097.123-3.463-2.461-3.591 2.539L229 302.5l2.75 46.75 5.75 4.25 22.508-4.462 7.611 1.636 27.135.888 25.53-1.573 31.696-11.472 10.3-17.83-29.906-34.775z" class="primary"/><path fill="#B26836" d="M332.374 285.912c-5.177 5.988-14.222 10.91-22.138 10.923l-72.097.123-3.463-2.461-3.591 2.539L229 302.5l2.75 46.75 5.75 4.25 22.508-4.462 7.611 1.636 27.135.888 25.53-1.573 31.696-11.472 10.3-17.83-29.906-34.775z" class="primary"/><path fill="none" stroke="#B26836" stroke-width="2" d="m231.674 347.924-2.58-45.798M317.4 349.36s-26.432 19.221-59.743 0m103.446-26.775-8.766 14.542" class="primary"/><path fill="#B26836" d="m231.674 347.924-2.58-45.798M317.4 349.36s-26.432 19.221-59.743 0m103.446-26.775-8.766 14.542" class="primary"/></g><path fill="#B26836" d="M137.337 122.127c-4.556 12.12-9.293 21.861-13.968 34.901l-5.426 14.293-12.817 14.711L85.1 170.355l10.9-9.91 6.399-26.085m-59.743-.002c1.6 7.392 9.551 35.145 9.551 35.145l4.423 16.828-26.257.011-4.122-16.316-9.575-37.087m-2.097-44.09C10.161 76.789 1.295 52.691 1.295 52.691S15.97 72.195 23.292 81.958m92.35-8.705 24.77-42.33s1.697 23.511 1.954 31.868c0 0 24.55-3.446 25.627 18.52.87.009 19.813 15.075 19.813 15.075s-.431 27.781-41.563 11.199" class="primary" style="display:block" transform="translate(215 215)"/><path fill="none" stroke="#B26836" stroke-linecap="round" stroke-linejoin="round" stroke-width="4" d="m238.139 296.958 72.097-.123a27.308 27.308 0 0 0 20.613-9.449m-99.175 60.538-2.58-45.798M317.4 349.36s-26.432 19.221-59.743 0m103.446-26.775-8.766 14.542m0 0c-4.556 12.12-9.293 21.861-13.968 34.901l-5.426 14.293-12.817 14.711-20.025-15.677 10.9-9.91 6.399-26.085" class="primary" style="display:block"/><path fill="none" stroke="#B26836" stroke-linecap="round" stroke-linejoin="round" stroke-width="4" d="M42.656 134.358c1.6 7.392 9.551 35.145 9.551 35.145l4.423 16.828-26.257.011-4.122-16.316-9.575-37.087m-2.097-44.09C10.161 76.789 1.295 52.691 1.295 52.691S15.97 72.195 23.292 81.958m92.35-8.705 24.77-42.33s1.697 23.511 1.954 31.868c0 0 24.55-3.446 25.627 18.52.87.009 19.813 15.075 19.813 15.075s-.431 27.781-41.563 11.199" class="primary" style="display:block" transform="translate(215 215)"/><path fill="none" stroke="#4BB3FD" stroke-linecap="round" stroke-linejoin="round" stroke-width="7" d="M103.566 80.52c4.854 19.211 20.768 34.647 35.184 39.147" class="quinary" style="display:block" transform="translate(215 215)"/></g><g clip-path="url(#h)" style="display:none"><g style="display:none"><path class="senary"/><path class="primary"/><path class="primary"/></g><path fill="none" class="quinary" style="display:none"/><g style="display:none"><path class="tertiary"/><path class="tertiary" style="mix-blend-mode:multiply"/></g><g style="display:none"><path class="quaternary"/><path class="quaternary" style="mix-blend-mode:multiply"/></g><g style="display:none"><path fill="none" class="secondary"/><path class="secondary"/></g><path class="quaternary" style="display:none"/><path class="secondary" style="display:none"/><g style="display:none"><path class="secondary"/><path fill="none" class="secondary"/></g><path class="tertiary" style="display:none"/><path class="tertiary" style="display:none"/><g style="display:none"><path class="primary"/><path class="primary" style="mix-blend-mode:multiply"/></g><g style="display:none"><path class="primary"/><path class="primary" style="mix-blend-mode:multiply"/></g><g fill="none" style="display:none"><path class="primary"/><path class="primary" style="mix-blend-mode:multiply"/></g><g fill="none" style="display:none"><path class="primary"/><path class="primary" style="mix-blend-mode:multiply"/></g><g style="display:none"><path fill="none" class="primary"/><path class="primary"/><path fill="none" class="primary"/><path class="primary"/></g><path class="primary" style="display:none"/><path class="primary" style="display:none"/><path class="primary" style="display:none"/><path class="primary" style="display:none"/><g fill="none" style="display:none"><path class="primary"/><path class="primary"/></g><g fill="none" style="display:none"><path class="primary"/><path class="primary"/></g><path fill="none" class="primary" style="display:none"/><path fill="none" class="primary" style="display:none"/><path fill="none" class="primary" style="display:none"/><path fill="none" class="quinary" style="display:none"/></g><g clip-path="url(#i)" style="display:none"><g style="display:none"><path class="senary"/><path class="primary"/><path class="primary"/></g><path fill="none" class="quinary" style="display:none"/><g style="display:none"><path class="tertiary"/><path class="tertiary" style="mix-blend-mode:multiply"/></g><g style="display:none"><path class="quaternary"/><path class="quaternary" style="mix-blend-mode:multiply"/></g><g style="display:none"><path fill="none" class="secondary"/><path class="secondary"/></g><path class="quaternary" style="display:none"/><path class="secondary" style="display:none"/><g style="display:none"><path class="secondary"/><path fill="none" class="secondary"/></g><path class="tertiary" style="display:none"/><path class="tertiary" style="display:none"/><g style="display:none"><path class="primary"/><path class="primary" style="mix-blend-mode:multiply"/></g><g style="display:none"><path class="primary"/><path class="primary" style="mix-blend-mode:multiply"/></g><g fill="none" style="display:none"><path class="primary"/><path class="primary" style="mix-blend-mode:multiply"/></g><g fill="none" style="display:none"><path class="primary"/><path class="primary" style="mix-blend-mode:multiply"/></g><g style="display:none"><path fill="none" class="primary"/><path class="primary"/><path fill="none" class="primary"/><path class="primary"/></g><path class="primary" style="display:none"/><path class="primary" style="display:none"/><path class="primary" style="display:none"/><path class="primary" style="display:none"/><g fill="none" style="display:none"><path class="primary"/><path class="primary"/></g><g fill="none" style="display:none"><path class="primary"/><path class="primary"/></g><path fill="none" class="primary" style="display:none"/><path fill="none" class="primary" style="display:none"/><path fill="none" class="primary" style="display:none"/><path fill="none" class="quinary" style="display:none"/></g></g></g></svg>