<?xml version="1.0" encoding="UTF-8"?>
<!DOCTYPE svg PUBLIC "-//W3C//DTD SVG 1.1//EN" "http://www.w3.org/Graphics/SVG/1.1/DTD/svg11.dtd">
<svg xmlns="http://www.w3.org/2000/svg" version="1.1" width="175px" height="35px" style="shape-rendering:geometricPrecision; text-rendering:geometricPrecision; image-rendering:optimizeQuality; fill-rule:evenodd; clip-rule:evenodd" xmlns:xlink="http://www.w3.org/1999/xlink">
<g><path style="opacity:0.126" fill="#0b0500" d="M 564.5,367.5 C 565.117,367.611 565.617,367.944 566,368.5C 566.667,381.5 566.667,394.5 566,407.5C 559.256,408.479 552.422,408.812 545.5,408.5C 545.789,404.894 545.456,401.394 544.5,398C 545.321,387.91 545.821,377.744 546,367.5C 546.5,367 547,366.5 547.5,366C 542.843,359.597 543.843,354.263 550.5,350C 559.022,347.895 564.689,350.895 567.5,359C 567.097,361.887 565.764,364.221 563.5,366C 564.056,366.383 564.389,366.883 564.5,367.5 Z"/></g>
<g><path style="opacity:0.969" fill="#ef9000" d="M 554.5,350.5 C 566.04,352.38 568.04,357.547 560.5,366C 550.004,368.497 545.837,364.664 548,354.5C 550.013,352.752 552.18,351.418 554.5,350.5 Z"/></g>
<g><path style="opacity:0.085" fill="#100800" d="M 523.5,367.5 C 523.5,367.833 523.5,368.167 523.5,368.5C 523.631,369.239 523.464,369.906 523,370.5C 515.866,365.739 508.366,365.239 500.5,369C 495.822,372.815 493.155,377.649 492.5,383.5C 491.839,385.134 491.506,386.967 491.5,389C 491.3,391.866 491.967,394.366 493.5,396.5C 497.884,405.701 505.218,409.534 515.5,408C 518.249,406.877 520.749,405.377 523,403.5C 523.483,404.448 523.649,405.448 523.5,406.5C 528.5,406.5 533.5,406.5 538.5,406.5C 539.495,393.677 539.829,380.677 539.5,367.5C 540.117,367.611 540.617,367.944 541,368.5C 541.822,381.742 541.655,394.909 540.5,408C 528.678,408.399 517.011,409.066 505.5,410C 496.486,406.985 490.986,400.818 489,391.5C 488.786,396.885 488.286,402.219 487.5,407.5C 481.193,408.664 474.859,408.831 468.5,408C 467.684,400.579 467.184,393.079 467,385.5C 466.29,384.027 465.124,383.36 463.5,383.5C 462.285,390.216 462.285,396.716 463.5,403C 463.025,404.763 462.358,406.43 461.5,408C 455.167,408.667 448.833,408.667 442.5,408C 441.751,406.266 441.251,404.433 441,402.5C 426.294,412.967 411.461,413.133 396.5,403C 390.442,398.278 386.942,392.111 386,384.5C 384.333,383.167 382.667,383.167 381,384.5C 380.333,387.167 380.333,389.833 381,392.5C 383.57,393.009 385.903,394.009 388,395.5C 388.854,399.625 388.52,403.625 387,407.5C 380.692,411.352 374.526,411.352 368.5,407.5C 369.5,407.5 370.5,407.5 371.5,407.5C 376.527,407.497 381.527,407.164 386.5,406.5C 386.5,402.833 386.5,399.167 386.5,395.5C 384.143,395.663 381.81,395.497 379.5,395C 378.944,394.617 378.611,394.117 378.5,393.5C 378.5,389.833 378.5,386.167 378.5,382.5C 381.167,382.5 383.833,382.5 386.5,382.5C 386.5,377.5 386.5,372.5 386.5,367.5C 387.222,367.918 387.722,368.584 388,369.5C 397.416,355.028 410.583,349.528 427.5,353C 432.029,354.514 436.195,356.681 440,359.5C 441.163,357.715 441.83,355.715 442,353.5C 442.75,352.874 443.584,352.374 444.5,352C 449.5,351.333 454.5,351.333 459.5,352C 460.667,352.5 461.5,353.333 462,354.5C 462.499,358.152 462.665,361.818 462.5,365.5C 478.479,361.989 487.312,368.322 489,384.5C 491.169,372.337 498.503,365.67 511,364.5C 515.264,365.185 519.431,366.185 523.5,367.5 Z M 439.5,364.5 C 440.829,369.624 441.495,375.124 441.5,381C 441.648,387 441.148,392.833 440,398.5C 437.009,393.347 433.176,389.014 428.5,385.5C 419.635,393.116 412.968,391.616 408.5,381C 411.644,372.204 417.311,370.204 425.5,375C 427.5,375.667 429.5,375.667 431.5,375C 434.438,371.581 437.105,368.081 439.5,364.5 Z M 513.5,383.5 C 521.206,385.205 521.873,388.205 515.5,392.5C 510.167,390.243 509.5,387.243 513.5,383.5 Z"/></g>
<g><path style="opacity:0.048" fill="#000000" d="M 265.5,354.5 C 265.5,371.833 265.5,389.167 265.5,406.5C 265.5,406.833 265.5,407.167 265.5,407.5C 264.883,407.389 264.383,407.056 264,406.5C 263.333,389.5 263.333,372.5 264,355.5C 264.383,354.944 264.883,354.611 265.5,354.5 Z"/></g>
<g><path style="opacity:0.985" fill="#f69400" d="M 411.5,353.5 C 421.36,352.292 430.193,354.625 438,360.5C 438.667,361.5 438.667,362.5 438,363.5C 435.347,367.152 432.347,370.486 429,373.5C 424.237,370.638 419.071,369.804 413.5,371C 406.208,374.915 404.708,380.415 409,387.5C 415.256,392.435 421.756,392.769 428.5,388.5C 430.029,388.529 431.196,389.196 432,390.5C 434.296,393.597 436.463,396.763 438.5,400C 436.523,402.302 434.19,404.302 431.5,406C 417.194,410.797 404.694,407.964 394,397.5C 384.974,382.529 387.141,369.363 400.5,358C 404.307,356.572 407.974,355.072 411.5,353.5 Z"/></g>
<g><path style="opacity:0.986" fill="#f99600" d="M 444.5,353.5 C 449.833,353.5 455.167,353.5 460.5,353.5C 460.334,358.844 460.501,364.177 461,369.5C 468.427,365.309 475.593,365.643 482.5,370.5C 483.667,372.833 484.833,375.167 486,377.5C 486.5,387.161 486.666,396.828 486.5,406.5C 480.833,406.5 475.167,406.5 469.5,406.5C 469.666,398.826 469.5,391.159 469,383.5C 466.333,380.833 463.667,380.833 461,383.5C 460.5,391.159 460.334,398.826 460.5,406.5C 455.167,406.5 449.833,406.5 444.5,406.5C 444.5,388.833 444.5,371.167 444.5,353.5 Z"/></g>
<g><path style="opacity:0.985" fill="#fb9700" d="M 290.5,355.5 C 307.015,359.831 311.515,369.831 304,385.5C 298.41,391.379 291.577,394.046 283.5,393.5C 283.5,397.833 283.5,402.167 283.5,406.5C 277.833,406.5 272.167,406.5 266.5,406.5C 266.5,389.5 266.5,372.5 266.5,355.5C 274.5,355.5 282.5,355.5 290.5,355.5 Z M 285.5,374.5 C 286.386,373.224 287.386,373.224 288.5,374.5C 287.575,375.562 286.575,375.562 285.5,374.5 Z"/></g>
<g><path style="opacity:0.983" fill="#f89500" d="M 377.5,359.5 C 377.5,362.5 377.5,365.5 377.5,368.5C 380.167,368.5 382.833,368.5 385.5,368.5C 385.5,372.833 385.5,377.167 385.5,381.5C 382.833,381.5 380.167,381.5 377.5,381.5C 377.183,385.702 377.517,389.702 378.5,393.5C 378.611,394.117 378.944,394.617 379.5,395C 381.81,395.497 384.143,395.663 386.5,395.5C 386.5,399.167 386.5,402.833 386.5,406.5C 381.527,407.164 376.527,407.497 371.5,407.5C 366.975,406.148 363.809,403.148 362,398.5C 361.501,393.177 361.334,387.844 361.5,382.5C 360.081,381.549 358.415,381.216 356.5,381.5C 356.5,377.5 356.5,373.5 356.5,369.5C 362.19,368.849 364.523,365.516 363.5,359.5C 368.167,359.5 372.833,359.5 377.5,359.5 Z"/></g>
<g><path style="opacity:0.985" fill="#f99600" d="M 523.5,368.5 C 528.5,368.5 533.5,368.5 538.5,368.5C 538.5,381.167 538.5,393.833 538.5,406.5C 533.5,406.5 528.5,406.5 523.5,406.5C 523.649,405.448 523.483,404.448 523,403.5C 520.749,405.377 518.249,406.877 515.5,408C 505.218,409.534 497.884,405.701 493.5,396.5C 492.705,392.215 492.372,387.881 492.5,383.5C 493.155,377.649 495.822,372.815 500.5,369C 508.366,365.239 515.866,365.739 523,370.5C 523.464,369.906 523.631,369.239 523.5,368.5 Z M 513.5,383.5 C 509.5,387.243 510.167,390.243 515.5,392.5C 521.873,388.205 521.206,385.205 513.5,383.5 Z"/></g>
<g><path style="opacity:0.98" fill="#f99600" d="M 589.5,406.5 C 584.167,406.5 578.833,406.5 573.5,406.5C 573.5,393.833 573.5,381.167 573.5,368.5C 578.739,367.963 583.739,368.63 588.5,370.5C 589.107,370.376 589.44,370.043 589.5,369.5C 596.821,365.218 603.988,365.551 611,370.5C 613.695,373.648 615.028,377.315 615,381.5C 615.5,389.827 615.666,398.16 615.5,406.5C 609.833,406.5 604.167,406.5 598.5,406.5C 598.666,398.826 598.5,391.159 598,383.5C 594.844,380.601 592.178,380.935 590,384.5C 589.5,391.826 589.334,399.159 589.5,406.5 Z"/></g>
<g><path style="opacity:0.083" fill="#120a00" d="M 342.5,367.5 C 343.93,367.421 345.264,367.754 346.5,368.5C 348.822,370.657 350.989,372.99 353,375.5C 352.739,370.313 355.072,367.313 360,366.5C 360.269,363.648 361.103,360.982 362.5,358.5C 367.802,357.337 373.136,357.171 378.5,358C 380.179,360.565 380.846,363.398 380.5,366.5C 382.735,366.205 384.735,366.539 386.5,367.5C 383.833,367.5 381.167,367.5 378.5,367.5C 378.806,364.615 378.473,361.948 377.5,359.5C 372.833,359.5 368.167,359.5 363.5,359.5C 364.523,365.516 362.19,368.849 356.5,369.5C 355.515,373.634 355.182,377.968 355.5,382.5C 357.5,382.5 359.5,382.5 361.5,382.5C 361.334,387.844 361.501,393.177 362,398.5C 363.809,403.148 366.975,406.148 371.5,407.5C 370.5,407.5 369.5,407.5 368.5,407.5C 365.091,407.267 362.591,405.6 361,402.5C 359.814,396.915 359.148,391.249 359,385.5C 357.703,384.216 356.536,384.383 355.5,386C 356.402,390.007 355.069,393.34 351.5,396C 353.211,397.133 353.711,398.633 353,400.5C 342.721,411.572 330.888,413.405 317.5,406C 310.652,400.471 307.486,393.304 308,384.5C 302.503,391.498 295.337,395.165 286.5,395.5C 286.665,399.182 286.499,402.848 286,406.5C 285.5,407 285,407.5 284.5,408C 277.986,408.82 271.653,408.653 265.5,407.5C 265.5,407.167 265.5,406.833 265.5,406.5C 265.833,406.5 266.167,406.5 266.5,406.5C 272.167,406.5 277.833,406.5 283.5,406.5C 283.5,402.167 283.5,397.833 283.5,393.5C 291.577,394.046 298.41,391.379 304,385.5C 311.515,369.831 307.015,359.831 290.5,355.5C 282.35,354.507 274.017,354.174 265.5,354.5C 265.611,353.883 265.944,353.383 266.5,353C 276.679,351.839 286.679,352.506 296.5,355C 305.623,359.146 310.456,366.313 311,376.5C 316.121,368.604 323.454,364.604 333,364.5C 336.509,364.822 339.675,365.822 342.5,367.5 Z"/></g>
<g><path style="opacity:0.984" fill="#f69400" d="M 342.5,367.5 C 351.174,373.185 354.674,381.185 353,391.5C 344.578,392.318 336.078,392.818 327.5,393C 330.89,397.417 334.557,397.584 338.5,393.5C 342.184,395.258 346.017,396.592 350,397.5C 351.257,397.85 351.591,398.517 351,399.5C 339.273,411.052 327.273,411.385 315,400.5C 307.237,387.22 309.737,376.387 322.5,368C 329.13,366.17 335.796,366.003 342.5,367.5 Z"/></g>
<g><path style="opacity:0.864" fill="#b36c00" d="M 564.5,367.5 C 564.5,367.833 564.5,368.167 564.5,368.5C 559.167,368.5 553.833,368.5 548.5,368.5C 548.5,381.167 548.5,393.833 548.5,406.5C 547.505,393.677 547.171,380.677 547.5,367.5C 553.167,367.5 558.833,367.5 564.5,367.5 Z"/></g>
<g><path style="opacity:0.979" fill="#fc9800" d="M 564.5,368.5 C 564.5,381.167 564.5,393.833 564.5,406.5C 559.167,406.5 553.833,406.5 548.5,406.5C 548.5,393.833 548.5,381.167 548.5,368.5C 553.833,368.5 559.167,368.5 564.5,368.5 Z"/></g>
<g><path style="opacity:0.76" fill="#ab6700" d="M 588.5,367.5 C 588.328,368.492 588.662,369.158 589.5,369.5C 589.44,370.043 589.107,370.376 588.5,370.5C 583.739,368.63 578.739,367.963 573.5,368.5C 573.5,381.167 573.5,393.833 573.5,406.5C 572.505,393.677 572.171,380.677 572.5,367.5C 577.833,367.5 583.167,367.5 588.5,367.5 Z"/></g>
<g><path style="opacity:0.316" fill="#1c1000" d="M 588.5,367.5 C 583.167,367.5 577.833,367.5 572.5,367.5C 572.171,380.677 572.505,393.677 573.5,406.5C 578.833,406.5 584.167,406.5 589.5,406.5C 589.5,406.833 589.5,407.167 589.5,407.5C 583.432,408.826 577.266,408.826 571,407.5C 570.185,394.121 570.352,380.788 571.5,367.5C 577.32,366.184 582.987,366.184 588.5,367.5 Z"/></g>
<g><path style="opacity:0.104" fill="#0e0700" d="M 283.5,370.5 C 288.339,369.677 290.673,371.677 290.5,376.5C 288.194,376.993 285.861,377.326 283.5,377.5C 283.5,375.167 283.5,372.833 283.5,370.5 Z M 285.5,374.5 C 286.575,375.562 287.575,375.562 288.5,374.5C 287.386,373.224 286.386,373.224 285.5,374.5 Z"/></g>
<g><path style="opacity:0.6" fill="#734500" d="M 356.5,369.5 C 356.5,373.5 356.5,377.5 356.5,381.5C 358.415,381.216 360.081,381.549 361.5,382.5C 359.5,382.5 357.5,382.5 355.5,382.5C 355.182,377.968 355.515,373.634 356.5,369.5 Z"/></g>
<g><path style="opacity:0.647" fill="#8e5609" d="M 539.5,367.5 C 539.829,380.677 539.495,393.677 538.5,406.5C 538.5,393.833 538.5,381.167 538.5,368.5C 533.5,368.5 528.5,368.5 523.5,368.5C 523.5,368.167 523.5,367.833 523.5,367.5C 528.833,366.167 534.167,366.167 539.5,367.5 Z"/></g>
<g><path style="opacity:0.085" fill="#0d0600" d="M 589.5,407.5 C 589.5,407.167 589.5,406.833 589.5,406.5C 589.334,399.159 589.5,391.826 590,384.5C 592.178,380.935 594.844,380.601 598,383.5C 598.5,391.159 598.666,398.826 598.5,406.5C 604.167,406.5 609.833,406.5 615.5,406.5C 615.666,398.16 615.5,389.827 615,381.5C 615.028,377.315 613.695,373.648 611,370.5C 603.988,365.551 596.821,365.218 589.5,369.5C 588.662,369.158 588.328,368.492 588.5,367.5C 606.282,360.472 615.782,366.472 617,385.5C 617.799,392.883 617.632,400.217 616.5,407.5C 610.193,408.664 603.859,408.831 597.5,408C 597,407.5 596.5,407 596,406.5C 595.5,398.841 595.334,391.174 595.5,383.5C 594.178,383.33 593.011,383.663 592,384.5C 591.667,391.833 591.333,399.167 591,406.5C 590.617,407.056 590.117,407.389 589.5,407.5 Z"/></g>
<g><path style="opacity:0.115" fill="#120a00" d="M 336.5,381.5 C 333.663,383.402 330.329,384.069 326.5,383.5C 327.898,381.101 329.898,379.434 332.5,378.5C 334.417,378.754 335.751,379.754 336.5,381.5 Z"/></g>
<g><path style="opacity:0.588" fill="#895200" d="M 377.5,359.5 C 378.473,361.948 378.806,364.615 378.5,367.5C 381.167,367.5 383.833,367.5 386.5,367.5C 386.5,372.5 386.5,377.5 386.5,382.5C 383.833,382.5 381.167,382.5 378.5,382.5C 378.5,386.167 378.5,389.833 378.5,393.5C 377.517,389.702 377.183,385.702 377.5,381.5C 380.167,381.5 382.833,381.5 385.5,381.5C 385.5,377.167 385.5,372.833 385.5,368.5C 382.833,368.5 380.167,368.5 377.5,368.5C 377.5,365.5 377.5,362.5 377.5,359.5 Z"/></g>
<g><path style="opacity:0.063" fill="#150c01" d="M 511.5,381.5 C 515.516,380.9 519.016,381.9 522,384.5C 521.992,393.088 518.159,395.421 510.5,391.5C 507.605,387.773 507.939,384.44 511.5,381.5 Z M 513.5,383.5 C 509.5,387.243 510.167,390.243 515.5,392.5C 521.873,388.205 521.206,385.205 513.5,383.5 Z"/></g>
<g><path style="opacity:0.369" fill="#885100" d="M 336.5,381.5 C 337.404,382.209 337.737,383.209 337.5,384.5C 333.629,384.815 329.962,384.482 326.5,383.5C 330.329,384.069 333.663,383.402 336.5,381.5 Z"/></g>
<g><path style="opacity:0.472" fill="#d07d00" d="M 265.5,354.5 C 274.017,354.174 282.35,354.507 290.5,355.5C 282.5,355.5 274.5,355.5 266.5,355.5C 266.5,372.5 266.5,389.5 266.5,406.5C 266.167,406.5 265.833,406.5 265.5,406.5C 265.5,389.167 265.5,371.833 265.5,354.5 Z"/></g>
<g><path style="opacity:0.412" fill="#573507" d="M 492.5,383.5 C 492.372,387.881 492.705,392.215 493.5,396.5C 491.967,394.366 491.3,391.866 491.5,389C 491.506,386.967 491.839,385.134 492.5,383.5 Z"/></g>
<g><path style="opacity:0.418" fill="#643c03" d="M 444.5,353.5 C 444.5,371.167 444.5,388.833 444.5,406.5C 449.833,406.5 455.167,406.5 460.5,406.5C 455.025,407.489 449.358,407.822 443.5,407.5C 443.17,389.326 443.503,371.326 444.5,353.5 Z"/></g>
</svg>
